#!OML:ASF H:\Terrain\Patient Classification 1\PLAYGROUND\JustinFriday\JustinFriday.ASF
:FULLY-SPECIFIED
:DEGREES
1608
root 12.9917 20.4884 19.355 142.755 2.91192 -172.113
lowerback 39.4747 -2.10899 2.78841
upperback 5.19774 2.01717 5.53672
thorax -13.7253 1.92559 3.42722
lowerneck 4.70857 -0.645306 -14.044
upperneck 16.0753 -3.52382 7.37026
head 4.37944 -2.84142 4.49685
rclavicle -1.98785e-015 6.83819e-014
rhumerus 113.569 -3.98633 -67.8507
rradius 19.8329
rwrist 40.4113
rhand -37.9664 -1.39582
rfingers 7.12502
rthumb -11.0069 -391.087
lclavicle -1.98785e-015 6.83819e-014
lhumerus 103.296 17.0967 69.1184
lradius 18.4334
lwrist -60.8541
lhand -48.33 -11.8185
lfingers 7.12502
lthumb -20.9854 17.0662
rfemur -77.1644 -5.07275 31.4476
rtibia 55.0919
rfoot -14.3141 -5.93487
rtoes -1.94772
lfemur -77.0891 12.8941 -25.0737
ltibia 56.6104
lfoot -20.3381 -6.23617
ltoes -32.0294
1609
root 12.9904 20.4808 19.5883 143.924 2.77337 -172.201
lowerback 39.3611 -2.00289 2.6461
upperback 5.08996 2.01871 5.45263
thorax -13.8105 1.90609 3.41458
lowerneck 4.75493 -0.714902 -14.3013
upperneck 15.2767 -3.529 7.7831
head 4.13769 -2.77288 4.67069
rclavicle 1.47101e-014 -2.3059e-014
rhumerus 113.807 -4.1822 -68.0373
rradius 19.9251
rwrist 40.347
rhand -38.3415 -1.18758
rfingers 7.12502
rthumb -11.3687 -390.859
lclavicle 1.47101e-014 -2.3059e-014
lhumerus 103.964 16.8957 69.8128
lradius 18.3868
lwrist -61.7284
lhand -48.6759 -11.6851
lfingers 7.12502
lthumb -21.3177 17.1624
rfemur -76.5496 -5.07742 31.176
rtibia 55.3826
rfoot -14.113 -5.97378
rtoes -3.82636
lfemur -76.1761 13.2188 -24.7862
ltibia 57.0652
lfoot -19.7841 -6.95746
ltoes -31.803
1610
root 12.9903 20.4738 19.8082 145.105 2.59927 -172.316
lowerback 39.3107 -1.91112 2.51302
upperback 4.95972 2.00021 5.3218
thorax -13.9396 1.87473 3.35495
lowerneck 5.01947 -0.789994 -14.5504
upperneck 14.2955 -3.57619 8.31438
head 3.81155 -2.72129 4.88157
rclavicle -1.9133e-014 -7.95139e-014
rhumerus 114.138 -4.4327 -68.2889
rradius 19.97
rwrist 40.1704
rhand -38.7545 -1.03539
rfingers 7.12502
rthumb -11.7669 -390.685
lclavicle -1.9133e-014 -7.95139e-014
lhumerus 104.746 16.5762 70.6543
lradius 18.3908
lwrist -62.7837
lhand -48.9601 -11.5791
lfingers 7.12502
lthumb -21.5907 17.2373
rfemur -75.8855 -5.1259 30.9701
rtibia 55.7211
rfoot -13.981 -6.07971
rtoes -4.41907
lfemur -75.2148 13.3941 -24.4561
ltibia 57.6605
lfoot -19.2492 -7.17102
ltoes -31.0297
1611
root 12.9907 20.4751 20.0601 146.307 2.36337 -172.339
lowerback 39.2342 -1.85008 2.45338
upperback 4.83061 1.99817 5.27515
thorax -14.0626 1.85389 3.341
lowerneck 5.18966 -0.78409 -14.6816
upperneck 13.3832 -3.46686 8.56878
head 3.50184 -2.6004 4.98682
rclavicle -5.1684e-015 -1.66979e-014
rhumerus 114.485 -4.793 -68.2939
rradius 20.0289
rwrist 39.8951
rhand -39.133 -0.917849
rfingers 7.12502
rthumb -12.1319 -390.546
lclavicle -5.1684e-015 -1.66979e-014
lhumerus 105.468 16.4275 71.2002
lradius 18.3439
lwrist -63.3766
lhand -49.2381 -11.4047
lfingers 7.12502
lthumb -21.8577 17.3808
rfemur -75.2818 -5.14372 30.5006
rtibia 56.2207
rfoot -14.4569 -5.14976
rtoes 0.924174
lfemur -74.1181 13.4928 -24.0958
ltibia 58.1354
lfoot -18.7192 -7.39573
ltoes -30.7238
1612
root 12.9906 20.4773 20.2895 147.549 2.10672 -172.48
lowerback 38.7756 0.688067 4.35195
upperback 4.58519 1.17195 5.32335
thorax -13.987 -0.621329 3.27228
lowerneck 5.02533 -0.894993 -14.405
upperneck 12.5013 -3.39878 8.4375
head 3.25294 -2.47996 4.89608
rclavicle -2.48481e-016 -3.18055e-015
rhumerus 115.112 -4.73421 -69.0724
rradius 20.0159
rwrist 40.5518
rhand -39.4359 -0.659493
rfingers 7.12502
rthumb -12.424 -390.27
lclavicle -2.48481e-016 -3.18055e-015
lhumerus 106.27 16.4229 71.5406
lradius 18.3547
lwrist -63.7865
lhand -49.5229 -11.2305
lfingers 7.12502
lthumb -22.1311 17.5229
rfemur -74.6644 -5.1611 29.9966
rtibia 56.8386
rfoot -13.4493 -5.29588
rtoes -0.387714
lfemur -73.1012 13.7244 -23.9721
ltibia 58.6355
lfoot -18.2461 -7.6432
ltoes -30.4611
1613
root 12.9895 20.4776 20.5055 148.783 1.9598 -172.488
lowerback 38.7973 0.642147 4.23257
upperback 4.314 1.16039 5.20191
thorax -14.3164 -0.582758 3.20842
lowerneck 4.54421 -2.37725 -13.716
upperneck 12.7999 -3.16607 7.34369
head 3.43502 -1.55472 4.47745
rclavicle 1.80894e-014 -4.69132e-014
rhumerus 115.348 -4.6754 -69.6004
rradius 20.0612
rwrist 40.8483
rhand -39.6845 -0.479203
rfingers 7.12502
rthumb -12.6636 -390.075
lclavicle 1.80894e-014 -4.69132e-014
lhumerus 106.611 16.3499 71.6768
lradius 18.4018
lwrist -64.19
lhand -49.779 -11.0739
lfingers 7.12502
lthumb -22.3769 17.6501
rfemur -74.1615 -5.26717 30.0286
rtibia 57.5018
rfoot -12.1198 -6.15747
rtoes -6.1569
lfemur -72.0589 14.0516 -23.7204
ltibia 59.187
lfoot -17.7387 -7.88805
ltoes -29.3513
1614
root 12.9902 20.4861 20.7519 149.956 1.8252 -172.285
lowerback 38.756 0.56479 4.29952
upperback 4.16481 1.14121 5.16739
thorax -14.4734 -0.57426 3.14394
lowerneck 4.58819 -2.33093 -13.0202
upperneck 11.937 -3.1323 6.91061
head 3.14433 -1.54324 4.21912
rclavicle 7.93896e-015 -2.8625e-014
rhumerus 115.612 -4.86707 -69.7927
rradius 20.2649
rwrist 40.7819
rhand -39.9649 -0.406211
rfingers 7.12502
rthumb -12.934 -389.985
lclavicle 7.93896e-015 -2.8625e-014
lhumerus 107.079 16.4299 71.713
lradius 18.5057
lwrist -64.377
lhand -49.9908 -10.8937
lfingers 7.12502
lthumb -22.5803 17.8057
rfemur -73.3879 -5.17138 29.5427
rtibia 58.3658
rfoot -12.0719 -5.32458
rtoes 1.48705
lfemur -70.8726 14.5014 -23.299
ltibia 59.6715
lfoot -17.021 -8.96271
ltoes -27.3486
1615
root 12.9914 20.4877 20.9515 151.13 1.60846 -172.293
lowerback 38.4953 0.554362 4.17237
upperback 4.11819 1.09506 5.07018
thorax -14.4347 -0.565943 3.11534
lowerneck 4.82192 -2.51731 -12.789
upperneck 11.254 -3.43932 6.7367
head 2.92476 -1.70806 4.11749
rclavicle 8.55395e-015 -3.97569e-015
rhumerus 116.04 -5.08487 -70.0643
rradius 20.3931
rwrist 40.7475
rhand -40.2755 -0.324266
rfingers 7.12502
rthumb -13.2334 -389.884
lclavicle 8.55395e-015 -3.97569e-015
lhumerus 107.563 16.6306 71.5185
lradius 18.6938
lwrist -64.2707
lhand -50.1498 -10.6776
lfingers 7.12502
lthumb -22.7329 18.0032
rfemur -72.5104 -5.33331 29.3934
rtibia 59.0428
rfoot -10.7559 -5.70449
rtoes -0.648795
lfemur -69.7495 14.9584 -23.2227
ltibia 60.2589
lfoot -16.8982 -8.87668
ltoes -28.5478
1616
root 12.991 20.4829 21.122 152.414 1.46429 -172.369
lowerback 38.332 0.529421 4.0512
upperback 3.88527 1.09408 4.92177
thorax -14.6514 -0.520314 3.0114
lowerneck 6.15743 -2.3193 -13.4163
upperneck 9.00649 -3.54935 8.04046
head 2.06995 -1.80046 4.63241
rclavicle 1.98152e-014 2.8625e-014
rhumerus 116.376 -5.46857 -70.1121
rradius 20.3795
rwrist 40.422
rhand -40.5106 -0.170819
rfingers 7.12502
rthumb -13.4599 -389.716
lclavicle 1.98152e-014 2.8625e-014
lhumerus 107.947 16.5866 71.5647
lradius 18.8035
lwrist -64.5098
lhand -50.333 -10.5263
lfingers 7.12502
lthumb -22.9087 18.1328
rfemur -71.8182 -5.52746 29.416
rtibia 59.8205
rfoot -11.0775 -5.82755
rtoes 2.30541
lfemur -68.6028 15.2979 -23.0573
ltibia 60.8055
lfoot -17.0187 -8.27648
ltoes -29.0224
1617
root 12.9904 20.5075 21.3527 153.694 1.49401 -172.199
lowerback 38.0626 0.507197 4.21663
upperback 3.76584 1.17483 4.88346
thorax -14.6866 -0.470713 2.83912
lowerneck 5.70479 -2.45282 -13.2241
upperneck 8.94139 -3.68391 7.85988
head 2.13093 -1.86957 4.53589
rclavicle -9.83363e-015 2.10712e-014
rhumerus 116.866 -5.67115 -70.427
rradius 20.376
rwrist 40.619
rhand -40.6626 0.0621866
rfingers 7.12502
rthumb -13.6064 -389.473
lclavicle -9.83363e-015 2.10712e-014
lhumerus 108.728 16.3252 72.2187
lradius 18.7662
lwrist -65.2738
lhand -50.5668 -10.4485
lfingers 7.12502
lthumb -23.133 18.1826
rfemur -70.8965 -5.61974 29.5817
rtibia 60.4449
rfoot -10.9239 -5.61074
rtoes 2.98846
lfemur -66.8119 14.7786 -21.8195
ltibia 61.0362
lfoot -16.9396 -6.93425
ltoes -30.2155
1618
root 12.9906 20.5171 21.5405 154.91 1.57009 -171.911
lowerback 37.8603 0.46983 4.44921
upperback 3.62557 1.26991 4.9024
thorax -14.77 -0.422219 2.69146
lowerneck 4.77209 -2.52091 -12.9436
upperneck 9.23274 -3.67091 7.64166
head 2.35701 -1.85758 4.40938
rclavicle 1.75179e-015 3.02153e-014
rhumerus 117.338 -5.50742 -71.0678
rradius 20.3472
rwrist 41.2528
rhand -40.8131 0.258241
rfingers 7.12502
rthumb -13.7515 -389.267
lclavicle 1.75179e-015 3.02153e-014
lhumerus 109.428 16.235 72.5685
lradius 18.6669
lwrist -65.7208
lhand -50.7748 -10.3276
lfingers 7.12502
lthumb -23.3325 18.2783
rfemur -69.8978 -5.33915 29.6177
rtibia 61.2066
rfoot -11.0039 -6.01288
rtoes 3.78857
lfemur -65.5154 15.858 -21.4684
ltibia 61.4117
lfoot -16.5502 -7.98505
ltoes -29.1134
1619
root 12.9905 20.5386 21.7402 156.086 1.37998 -171.894
lowerback 37.742 0.406699 4.42116
upperback 3.37967 1.26158 4.83794
thorax -15.0178 -0.3913 2.63671
lowerneck 5.85526 -2.32133 -13.6689
upperneck 7.38775 -3.68665 8.97475
head 1.6623 -1.8996 4.95598
rclavicle 3.30231e-014 -2.8625e-014
rhumerus 117.669 -5.54297 -71.3558
rradius 20.3024
rwrist 41.3852
rhand -40.9929 0.418771
rfingers 7.12502
rthumb -13.9248 -389.095
lclavicle 3.30231e-014 -2.8625e-014
lhumerus 109.867 16.2902 72.5882
lradius 18.5964
lwrist -65.8175
lhand -50.9455 -10.1866
lfingers 7.12502
lthumb -23.4964 18.3984
rfemur -68.7864 -5.33465 29.368
rtibia 61.8797
rfoot -11.1217 -6.37434
rtoes 4.06298
lfemur -63.7333 15.5568 -20.6849
ltibia 61.6464
lfoot -16.0861 -7.22565
ltoes -27.8868
1620
root 12.9869 20.5491 21.9156 157.273 0.938694 -171.955
lowerback 37.5064 0.284773 4.35231
upperback 3.12984 1.16154 4.7501
thorax -15.2255 -0.391915 2.61537
lowerneck 5.2078 -2.44968 -13.2274
upperneck 7.47463 -3.75742 8.38202
head 1.78398 -1.92963 4.68753
rclavicle 3.23522e-014 5.00937e-014
rhumerus 117.961 -5.77591 -71.4206
rradius 20.3133
rwrist 41.1743
rhand -41.2226 0.6688
rfingers 7.12502
rthumb -14.1461 -388.83
lclavicle 3.23522e-014 5.00937e-014
lhumerus 110.36 16.1901 72.909
lradius 18.5721
lwrist -66.1544
lhand -51.0863 -10.1117
lfingers 7.12502
lthumb -23.6314 18.456
rfemur -67.7382 -5.72049 29.0488
rtibia 62.6069
rfoot -11.0904 -6.37852
rtoes 4.51778
lfemur -62.1351 15.4106 -20.4689
ltibia 62.047
lfoot -16.0602 -6.56766
ltoes -27.6956
